<svg width="163" height="45" viewBox="0 0 163 45" fill="none" xmlns="http://www.w3.org/2000/svg">
<path d="M85.4937 32.1914C85.2726 32.4921 85.0654 32.7778 84.8987 33.0145C84.8046 33.1483 84.7276 33.2604 84.6701 33.3475V34.1887L83.5759 34.0851C81.8635 33.9231 80.1755 33.4022 78.8043 32.5156C77.355 31.5785 76.2377 30.3169 75.4627 28.7486L85.4937 32.1914ZM85.4937 32.1914L86.0584 40.065L86.213 42.2205L87.756 40.7074L92.1014 36.4464L92.6535 35.9049L92.2684 35.2343L91.4012 35.7324M85.4937 32.1914L91.4012 35.7324M91.4012 35.7324L92.2683 35.2343L92.2683 35.2342L92.268 35.2337L92.267 35.2319L92.2628 35.2246L92.2464 35.196L92.1837 35.0867C92.1297 34.9924 92.0525 34.8574 91.9598 34.695C91.7744 34.3701 91.5274 33.936 91.2807 33.4981C91.1165 33.2067 90.9534 32.9154 90.8091 32.6544M91.4012 35.7324L90.8091 32.6544M90.8091 32.6544C91.3311 32.4333 91.753 32.2363 92.1309 32.0117C92.7584 31.6387 93.2381 31.2075 93.8845 30.5529L93.8846 30.5528C95.2664 29.153 96.3388 27.5161 97.0705 25.6228L97.0705 25.6227C97.7978 23.7401 98.1597 21.7526 98.1597 19.6682C98.1597 16.5034 97.2484 13.8783 95.3329 11.9099C93.418 9.94207 90.88 8.99342 87.8283 8.99342C85.072 8.99342 82.6433 9.6574 80.5877 11.0258C78.572 12.3676 77.0166 14.1441 75.9309 16.3377C74.8478 18.5262 74.3136 20.9318 74.3136 23.5381C74.3136 25.4411 74.6894 27.1847 75.4625 28.7484L90.8091 32.6544ZM87.1511 27.3422C87.412 27.2174 87.6657 27.0656 87.913 26.8866L87.9131 26.8866C88.7262 26.298 89.4302 25.3758 89.9876 24.042L87.1511 27.3422ZM87.1511 27.3422L87.1083 26.7449L86.4489 27.6084C86.0424 27.7241 85.6187 27.7813 85.1755 27.7813C84.0442 27.7813 83.2328 27.4118 82.6289 26.7194L82.6288 26.7193C82.0199 26.0215 81.6502 24.9748 81.6502 23.4444C81.6502 21.9264 81.9281 20.5102 82.4787 19.1863L82.4788 19.1861C83.0304 17.8593 83.7358 16.9249 84.5615 16.3132C85.3981 15.6935 86.3012 15.3939 87.2978 15.3939C88.4475 15.3939 89.2571 15.7716 89.8492 16.474L87.1511 27.3422ZM90.8231 19.8088C90.8231 18.2655 90.4568 17.1959 89.8492 16.474L90.8231 19.8088ZM90.8231 19.8088C90.8231 21.303 90.5436 22.7111 89.9876 24.0419L90.8231 19.8088Z" fill="#7A86B8" stroke="white" stroke-width="2"/>
<path d="M117.806 16.982L116.829 16.7658C117.806 16.982 117.806 16.9821 117.806 16.9822L117.806 16.9826L117.805 16.9842L117.804 16.9908L117.798 17.0167L117.776 17.118L117.69 17.5037L117.384 18.8903C117.129 20.0435 116.786 21.5946 116.435 23.1864C115.732 26.3799 115.002 29.7102 114.877 30.3474L114.875 30.358L114.875 30.358C114.418 32.5513 112.922 33.7448 111.367 33.7448H111.361H111.355H111.35H111.344H111.338H111.332H111.326H111.32H111.314H111.308H111.302H111.296H111.29H111.284H111.278H111.272H111.266H111.26H111.253H111.247H111.241H111.235H111.229H111.222H111.216H111.21H111.204H111.197H111.191H111.185H111.178H111.172H111.165H111.159H111.153H111.146H111.14H111.133H111.127H111.12H111.114H111.107H111.101H111.094H111.088H111.081H111.074H111.068H111.061H111.054H111.048H111.041H111.034H111.028H111.021H111.014H111.008H111.001H110.994H110.987H110.98H110.974H110.967H110.96H110.953H110.946H110.939H110.933H110.926H110.919H110.912H110.905H110.898H110.891H110.884H110.877H110.87H110.863H110.856H110.849H110.842H110.835H110.828H110.821H110.814H110.807H110.8H110.793H110.785H110.778H110.771H110.764H110.757H110.75H110.743H110.736H110.728H110.721H110.714H110.707H110.7H110.692H110.685H110.678H110.671H110.663H110.656H110.649H110.642H110.634H110.627H110.62H110.612H110.605H110.598H110.591H110.583H110.576H110.569H110.561H110.554H110.547H110.539H110.532H110.525H110.517H110.51H110.502H110.495H110.488H110.48H110.473H110.465H110.458H110.451H110.443H110.436H110.428H110.421H110.414H110.406H110.399H110.391H110.384H110.376H110.369H110.362H110.354H110.347H110.339H110.332H110.324H110.317H110.309H110.302H110.295H110.287H110.28H110.272H110.265H110.257H110.25H110.242H110.235H110.227H110.22H110.213H110.205H110.198H110.19H110.183H110.175H110.168H110.16H110.153H110.145H110.138H110.131H110.123H110.116H110.108H110.101H110.093H110.086H110.078H110.071H110.064H110.056H110.049H110.041H110.034H110.027H110.019H110.012H110.004H109.997H109.99H109.982H109.975H109.967H109.96H109.953H109.945H109.938H109.931H109.923H109.916H109.908H109.901H109.894H109.886H109.879H109.872H109.865H109.857H109.85H109.843H109.835H109.828H109.821H109.814H109.806H109.799H109.792H109.785H109.777H109.77H109.763H109.756H109.749H109.741H109.734H109.727H109.72H109.713H109.706H109.698H109.691H109.684H109.677H109.67H109.663H109.656H109.649H109.642H109.635H109.628H109.621H109.614H109.607H109.6H109.593H109.586H109.579H109.572H109.565H109.558H109.551H109.544H109.537H109.53H109.523H109.516H109.51H109.503H109.496H109.489H109.482H109.475H109.469H109.462H109.455H109.448H109.442H109.435H109.428H109.422H109.415H109.408H109.402H109.395H109.388H109.382H109.375H109.369H109.362H109.356H109.349H109.343H109.336H109.33H109.323H109.317H109.31H109.304H109.298H109.291H109.285H109.278H109.272H109.266H109.259H109.253H109.247H109.241H109.234H109.228H109.222H109.216H109.21H109.204H109.197H109.191H109.185H109.179H109.173H109.167H109.161H109.155H109.149H109.143H109.137H109.131H109.126H109.12H109.114H109.108H109.102H109.096H109.091H109.085H109.079H109.073H109.068H109.062H109.056H109.051H109.045H109.04H109.034H109.028H109.023H109.017H109.012H109.006H109.001H108.996H108.99H108.985H108.98H108.974H108.969H108.964H108.958H108.953H108.948H108.943H108.938H108.933H108.927H108.922H108.917H108.912H108.907H108.902H108.897H108.892H108.887H108.883H108.878H108.873H108.868H108.863H108.859H108.854H108.849H108.844H108.84H108.835H108.831H108.826H108.821H108.817H108.812H108.808H108.804H108.799H108.795H108.79H108.786H108.782H108.777H108.773H108.769H108.765H108.761H108.757H108.752H108.748H108.744H108.74H108.736H108.732H108.728H108.725H108.721H108.717H108.713H108.709H108.705H108.702H108.698H108.694H108.691H108.687H108.684H108.68H108.677H108.673H108.67H108.666H108.663H108.66H108.656H108.653H108.65H108.647H108.643H108.64H108.637H108.634H108.631H108.628H108.625H108.622H108.619H108.616H108.613H108.61H108.608H108.605H108.602H108.6H108.597H108.594H108.592H108.589H108.587H108.584H108.582H108.579H108.577H108.575H108.572H108.57H108.568H108.566H108.563H108.561H108.559H108.557H108.555H108.553H108.551H108.549H108.548H108.546H108.544H108.542H108.541H108.539H108.537H108.536H108.534H108.533H108.531H108.53H108.528H108.527H108.525H108.524H108.523H108.522H108.521H108.519H108.518H108.517H108.516H108.515H108.514H108.513H108.513H108.512H108.511H108.51H108.51H108.509H108.508H108.508H108.507H108.507H108.506H108.506H108.506H108.505H108.505H108.505H108.505H108.504H108.504H108.504H108.5C107.437 33.7408 106.211 33.7497 105.052 33.7581C104.261 33.7638 103.501 33.7693 102.847 33.7703L102.797 33.7704C102.064 33.7716 101.396 33.7727 100.829 33.658C100.171 33.5249 99.6371 33.2385 99.1508 32.7159C98.2456 31.7433 97.8608 30.4356 97.8608 28.9372C97.8608 28.7242 97.8814 28.4715 97.9144 28.1945L97.9146 28.1931C97.9478 27.9178 97.989 27.632 98.0382 27.3369L98.0382 27.3368C98.0856 27.0534 98.1329 26.7773 98.1799 26.5095L98.1801 26.5086C98.2281 26.2368 98.2747 25.997 98.3203 25.7919L100.27 16.5592L100.437 15.7658H101.248H106.211H107.406L107.195 16.942L105.58 25.9615L105.574 25.9942L105.566 26.0265C105.529 26.1758 105.493 26.3355 105.46 26.5057L105.46 26.5072C105.426 26.6801 105.398 26.8467 105.374 27.0063C105.35 27.1746 105.33 27.3225 105.317 27.4516L117.806 16.982ZM117.806 16.982L118.075 15.7658M117.806 16.982L118.075 15.7658M111.547 16.7658L110.567 16.5695L110.567 16.5697L110.566 16.5709L110.565 16.5754L110.562 16.5931L110.548 16.6623L110.495 16.9258L110.306 17.8712L109.722 20.7866C109.295 22.9253 108.849 25.1553 108.778 25.5173C108.75 25.6549 108.723 25.7851 108.698 25.9085C108.588 26.4492 108.504 26.8588 108.423 27.1884C108.322 27.6035 108.248 27.7816 108.198 27.8651C108.198 27.8653 108.198 27.8657 108.198 27.8664C108.201 27.8769 108.223 27.9488 107.457 28.0773C107.266 28.0945 107.1 28.1102 106.951 28.1242C106.425 28.1738 106.12 28.2026 105.766 28.2026C105.49 28.2026 105.427 28.1314 105.416 28.1187C105.415 28.1184 105.415 28.1182 105.415 28.1179L105.415 28.1175C105.368 28.0658 105.299 27.9582 105.299 27.689C105.299 27.6588 105.302 27.5856 105.317 27.4518L111.547 16.7658ZM111.547 16.7658L110.567 16.5694M111.547 16.7658L110.567 16.5694M118.075 15.7658H116.829M118.075 15.7658H116.829M116.829 15.7658H111.547H110.728M116.829 15.7658H110.728M110.728 15.7658L110.567 16.5694M110.728 15.7658L110.567 16.5694" fill="#7A86B8" stroke="white" stroke-width="2"/>
<path d="M133.946 18.8254L133.946 18.8261C134.212 19.4856 134.347 20.1741 134.347 20.8853C134.347 21.8539 134.14 22.7646 133.716 23.6004L133.715 23.6008C133.265 24.4883 132.534 25.2072 131.598 25.7799L131.598 25.7801C130.651 26.3589 129.448 26.7834 128.03 27.0835L128.03 27.0835C126.846 27.3338 125.448 27.4876 123.843 27.5519C123.843 27.5524 123.843 27.5529 123.843 27.5534L123.844 27.5544C123.896 27.7178 123.989 27.8768 124.144 28.0345L133.946 18.8254ZM133.946 18.8254C133.666 18.1328 133.23 17.5284 132.658 17.0137L133.946 18.8254ZM117.639 22.2871L117.639 22.2869C118.133 20.946 118.843 19.7576 119.77 18.7323L117.639 22.2871ZM117.639 22.2871C117.144 23.6301 116.898 25.0426 116.898 26.5184M117.639 22.2871L116.898 26.5184M121.264 33.5299L121.264 33.5298C120.286 33.1291 119.449 32.5761 118.781 31.8577L121.264 33.5299ZM121.264 33.5299C122.278 33.9445 123.448 34.1349 124.749 34.1349C125.363 34.1349 125.967 34.0957 126.558 34.0169L126.558 34.0169M121.264 33.5299L126.558 34.0169M126.558 34.0169C127.14 33.9391 127.694 33.8333 128.221 33.6975C128.367 33.6597 128.532 33.6224 128.718 33.5802C128.822 33.5567 128.932 33.5316 129.051 33.504C129.347 33.4349 129.699 33.3479 129.976 33.2441M126.558 34.0169L130.838 29.5432C130.993 29.5017 131.17 29.4359 131.382 29.3159L130.889 28.4459L129.89 28.3999L129.881 28.6014L129.881 28.6018L129.873 28.7678C129.441 28.9391 129.008 29.0864 128.572 29.2102C128.114 29.3405 127.664 29.4394 127.222 29.507M127.222 29.507L127.071 28.5184C127.071 28.5184 127.071 28.5184 127.071 28.5184M127.222 29.507C126.78 29.5745 126.371 29.6083 125.997 29.6083C125.373 29.6083 124.852 29.5277 124.436 29.3664L127.222 29.507ZM127.071 28.5184C127.469 28.4576 127.878 28.3679 128.298 28.2484L128.298 28.2483C128.721 28.1281 129.143 27.9838 129.563 27.8145L129.564 27.8141C129.868 27.6924 130.091 27.6534 130.224 27.6301C130.237 27.6278 130.249 27.6257 130.261 27.6236C130.312 27.6143 130.322 27.611 130.327 27.6094L130.327 27.6094C130.33 27.6084 130.35 27.6021 130.396 27.576L131.971 26.683L131.888 28.492L131.732 31.8701L131.705 32.4476L131.192 32.7127C130.827 32.9006 130.421 33.0774 129.976 33.2441M127.071 28.5184C126.669 28.5798 126.312 28.6083 125.997 28.6083C125.451 28.6083 125.063 28.5366 124.798 28.434L124.797 28.4337C124.485 28.313 124.28 28.1728 124.144 28.0345L127.071 28.5184ZM129.976 33.2441L129.625 32.3077L129.976 33.244C129.976 33.244 129.976 33.2441 129.976 33.2441ZM127.495 15.3756C128.619 15.3756 129.628 15.5084 130.499 15.8029L127.495 15.3756ZM127.495 15.3756C125.911 15.3756 124.446 15.6735 123.119 16.2873M127.495 15.3756L123.119 16.2873M123.119 16.2873C121.822 16.8874 120.702 17.7024 119.77 18.7322L123.119 16.2873ZM116.898 26.5184C116.898 27.5204 117.042 28.4784 117.337 29.3864L116.898 26.5184ZM124.492 22.5014C124.504 22.477 124.517 22.4527 124.529 22.4286L124.529 22.4283C124.737 22.0268 124.976 21.697 125.245 21.429L125.245 21.4284C125.516 21.1574 125.807 20.9535 126.117 20.8076C126.408 20.6712 126.703 20.6058 127.011 20.6058C127.374 20.6058 127.509 20.6936 127.555 20.7349L124.492 22.5014ZM132.658 17.0134C132.068 16.4818 131.337 16.0859 130.499 15.8029L132.658 17.0134ZM117.337 29.3868C117.641 30.322 118.122 31.1495 118.781 31.8573L117.337 29.3868Z" fill="#7A86B8" stroke="white" stroke-width="2"/>
<path d="M147.806 16.3174L147.773 17.0886L147.617 20.8024L147.551 22.3789L146.164 21.6515C146.161 21.6503 146.139 21.6414 146.09 21.6255C146.024 21.6039 145.942 21.5801 145.841 21.5517C145.82 21.5459 145.798 21.5396 145.774 21.5331C145.603 21.4855 145.365 21.4192 145.184 21.3479L147.806 16.3174ZM147.806 16.3174L147.068 16.0907M147.806 16.3174L147.068 16.0907M147.068 16.0907C146.771 15.9996 146.437 15.9109 146.067 15.8238C145.968 15.8003 145.913 15.782 145.826 15.7532C145.805 15.7461 145.782 15.7383 145.755 15.7296C145.604 15.6802 145.435 15.632 145.175 15.5908L145.175 15.5908M147.068 16.0907L145.175 15.5908M145.175 15.5908C144.755 15.5246 144.326 15.4726 143.889 15.4342L143.889 15.4342M145.175 15.5908L143.889 15.4342M143.889 15.4342C143.445 15.3953 143.01 15.3756 142.584 15.3756C141.207 15.3756 139.987 15.5485 138.954 15.9287L138.954 15.9288M143.889 15.4342L138.954 15.9288M138.954 15.9288C137.97 16.2915 137.127 16.7761 136.464 17.4069C135.826 18.0148 135.347 18.712 135.054 19.4988L135.054 19.4992M138.954 15.9288L135.054 19.4992M135.054 19.4992C134.784 20.2256 134.64 20.9548 134.64 21.6812M135.054 19.4992L134.64 21.6812M135.042 28.988C135.264 29.0722 135.589 29.152 135.895 29.2273C136.091 29.2755 136.279 29.3219 136.428 29.3664C136.829 29.4863 137.242 29.5849 137.669 29.6628C138.095 29.741 138.517 29.78 138.933 29.78C139.713 29.78 140.293 29.6448 140.673 29.3742C141.053 29.1037 141.243 28.7345 141.243 28.2664C141.243 27.871 141.097 27.525 140.805 27.2285L135.042 28.988ZM135.042 28.988L135.047 28.8371L135.047 28.8368L135.056 28.5646L134.057 28.5315M135.042 28.988L134.057 28.5315M134.057 28.5315L133.582 29.4116C133.72 29.4863 133.867 29.56 134.02 29.6326M134.057 28.5315L134.02 29.6326M134.02 29.6326L133.932 32.2922C134.056 32.3418 134.139 32.3898 134.219 32.4362C134.34 32.5065 134.455 32.573 134.696 32.6355M134.02 29.6326L135.817 25.0627C136.197 25.5055 136.651 25.8971 137.169 26.2424L137.723 25.4111L137.169 26.2425C137.669 26.5764 138.236 26.8909 138.864 27.1882L138.864 27.1883L138.871 27.1914C139.56 27.5116 139.931 27.765 140.092 27.9294C140.21 28.0495 140.243 28.1479 140.243 28.2664C140.243 28.4124 140.208 28.4776 140.093 28.5598C139.962 28.6527 139.632 28.78 138.933 28.78C138.579 28.78 138.219 28.7469 137.849 28.6792L137.849 28.6791C137.456 28.6074 137.079 28.5172 136.715 28.4084L136.714 28.408C136.539 28.3559 136.314 28.3006 136.113 28.251C136.051 28.2359 135.991 28.2212 135.936 28.2074C135.661 28.1384 135.473 28.0847 135.374 28.044L135.373 28.0437C135.044 27.9085 134.765 27.7772 134.531 27.6514L133.111 26.885L133.057 28.4983L132.932 32.259L132.909 32.9601L133.56 33.2207C133.614 33.2422 133.633 33.2529 133.691 33.2864C133.715 33.3006 133.747 33.3189 133.792 33.3439C133.957 33.4367 134.15 33.5268 134.445 33.6033M134.696 32.6355L134.445 33.6033M134.696 32.6355L134.446 33.6035C134.445 33.6034 134.445 33.6034 134.445 33.6033M134.696 32.6355C135.097 32.7396 135.516 32.8279 135.952 32.9009C136.39 32.9733 136.831 33.0308 137.279 33.0725C137.726 33.1139 138.148 33.1349 138.543 33.1349C139.926 33.1349 141.094 32.9788 142.046 32.6668C142.998 32.3546 143.765 31.9464 144.348 31.4418C144.93 30.9375 145.351 30.3677 145.612 29.7331C145.872 29.0988 146.002 28.4639 146.002 27.8293C146.002 27.2364 145.924 26.7135 145.768 26.2612C145.612 25.8087 145.378 25.4005 145.066 25.0362C144.753 24.6722 144.363 24.3392 143.895 24.0376C143.427 23.7359 142.881 23.4343 142.257 23.1324M134.445 33.6033C134.876 33.7155 135.324 33.8097 135.787 33.8872L135.789 33.8874C136.249 33.9637 136.715 34.0243 137.186 34.0682L137.187 34.0683C137.66 34.1121 138.112 34.1349 138.543 34.1349C139.995 34.1349 141.275 33.9719 142.358 33.6171L142.358 33.617C143.4 33.2753 144.294 32.8111 145.002 32.1976M145.002 32.1976C145.689 31.6033 146.21 30.9088 146.537 30.1125L146.537 30.1123C146.842 29.3676 147.002 28.6043 147.002 27.8293C147.002 27.1507 146.913 26.514 146.713 25.9355L146.713 25.9351C146.516 25.3633 146.219 24.8452 145.825 24.3858L145.825 24.3851C145.441 23.9373 144.974 23.5429 144.437 23.197L144.437 23.1968C143.93 22.8703 143.35 22.5509 142.702 22.2369M145.002 32.1976L144.348 31.4426L145.002 32.1978C145.002 32.1978 145.002 32.1977 145.002 32.1976ZM142.257 23.1324L142.711 22.2414C142.708 22.2399 142.705 22.2384 142.702 22.2369M142.257 23.1324L142.692 22.2322C142.695 22.2337 142.699 22.2353 142.702 22.2369M142.257 23.1324C141.726 22.8621 141.299 22.5916 140.977 22.321C140.655 22.0507 140.494 21.7022 140.494 21.2755C140.494 20.8594 140.657 20.5058 140.985 20.2145L145.183 21.3478C144.924 21.2461 144.645 21.1521 144.347 21.0669L144.346 21.0667C144.051 20.9823 143.748 20.9117 143.436 20.8551C143.146 20.8025 142.873 20.7774 142.616 20.7774C141.937 20.7774 141.7 20.9165 141.65 20.9617L141.649 20.962C141.522 21.075 141.494 21.1619 141.494 21.2755C141.494 21.4116 141.528 21.4775 141.619 21.5544L141.62 21.5551C141.864 21.7602 142.218 21.9897 142.702 22.2369M134.64 21.6812C134.64 22.3346 134.731 22.9534 134.93 23.5243L134.64 21.6812ZM134.93 23.5245C135.128 24.0908 135.425 24.605 135.817 25.0624L134.93 23.5245Z" fill="#7A86B8" stroke="white" stroke-width="2"/>
<path d="M161.52 15.7658L161.23 16.9954L160.372 20.6313L160.19 21.4017H159.398H156.782L155.677 26.5603C155.655 26.7027 155.628 26.8526 155.596 27.0102L155.596 27.0124C155.567 27.157 155.54 27.3018 155.516 27.4467L155.516 27.4489C155.491 27.5988 155.468 27.7403 155.449 27.8736L155.448 27.876C155.442 27.9224 155.437 27.9606 155.434 27.9913C155.439 27.9917 155.445 27.9919 155.453 27.9918L155.466 27.9916V27.9917C155.581 27.9917 155.81 27.9596 156.148 27.8747C156.468 27.7941 156.83 27.6806 157.186 27.5541C157.541 27.4278 157.877 27.2931 158.145 27.1737C158.279 27.1139 158.389 27.0607 158.473 27.0168C158.542 26.9806 158.576 26.9596 158.585 26.9539C158.589 26.952 158.589 26.9518 158.586 26.9535L160.513 25.5213L160.173 27.8974L159.564 32.1584L159.493 32.6557L159.052 32.8956C158.688 33.0933 158.211 33.2532 157.762 33.3807C157.296 33.5131 156.79 33.6297 156.332 33.7254C155.872 33.8215 155.45 33.8985 155.15 33.9508C154.999 33.977 154.878 33.9971 154.798 34.0103L154.712 34.0245C154.701 34.0262 154.701 34.0262 154.705 34.0255L154.72 34.0226C154.724 34.0219 154.734 34.02 154.746 34.0173C154.752 34.0159 154.768 34.012 154.778 34.0096C154.793 34.0055 154.839 33.9918 154.868 33.9817C154.946 33.9497 155.379 33.5664 155.527 33.0915C155.505 33.0183 155.478 32.9481 155.445 32.8813C155.021 32.9608 154.694 33.0141 154.576 33.0334C154.552 33.0372 154.537 33.0397 154.531 33.0408L154.65 34.034L154.65 34.034L161.52 15.7658ZM161.52 15.7658H160.256H157.985M161.52 15.7658H157.985M157.985 15.7658L158.643 12.4267L158.877 11.2335H157.661H152.792H151.986L151.814 12.0212L151.001 15.7658H149.146H148.29L148.158 16.611L147.589 20.2469L147.408 21.4017H148.576H149.813L148.784 26.3435C148.784 26.344 148.784 26.3444 148.784 26.3448C148.741 26.5464 148.697 26.7652 148.649 27.0011C148.6 27.2477 148.556 27.4926 148.517 27.7352L149.505 27.8917M157.985 15.7658L150.834 21.4017L149.763 26.5498C149.721 26.7476 149.677 26.9634 149.63 27.1974C149.583 27.4315 149.541 27.6631 149.505 27.8917M149.505 27.8917C149.469 28.1209 149.44 28.3443 149.419 28.5628M149.505 27.8917L148.518 27.7343C148.478 27.9829 148.447 28.2271 148.424 28.4679M149.419 28.5628L148.424 28.4672C148.424 28.4674 148.424 28.4676 148.424 28.4679M149.419 28.5628C149.398 28.7814 149.388 28.9737 149.388 29.1402C149.388 29.7017 149.453 30.2222 149.583 30.7007M149.419 28.5628L149.583 30.7007M148.424 28.4679C148.401 28.7091 148.388 28.9342 148.388 29.1402C148.388 29.7785 148.462 30.3884 148.618 30.9634M148.424 28.4679L148.618 30.9634M148.618 30.9634C148.787 31.5843 149.082 32.1411 149.505 32.619L148.618 30.9634ZM149.583 30.7007C149.713 31.1791 149.937 31.5979 150.254 31.9568L149.583 30.7007ZM153.508 34.1036C153.881 34.1036 154.26 34.0801 154.644 34.0346L151.169 33.7334C151.849 33.9934 152.639 34.1036 153.508 34.1036ZM149.589 20.4017H150.021L149.564 20.5564L149.589 20.4017ZM155.413 27.9879C155.413 27.9879 155.413 27.9881 155.414 27.9885L155.413 27.9879ZM149.505 32.6193C149.947 33.1195 150.515 33.4836 151.169 33.7333L149.505 32.6193Z" fill="#7A86B8" stroke="white" stroke-width="2"/>
<path d="M9.55711 41H10.3826L10.539 40.1894L11.9126 33.069H16.7075C19.2604 33.069 21.4092 32.8153 23.1437 32.2371C24.8822 31.6576 26.4395 30.7057 27.8452 29.401C29.0179 28.3283 29.9565 27.121 30.6927 25.8159L30.6975 25.8073L30.7022 25.7987C31.4033 24.4966 31.9389 23.0579 32.2402 21.4847L32.2402 21.4845C32.9604 17.7196 32.4734 14.615 30.4501 12.3021C28.471 10.0351 25.3583 8.99342 21.4223 8.99342H8.83895H8.01478L7.85736 9.80242L2.01841 39.809L1.78665 41H3H9.55711ZM18.9244 15.7083C21.3294 15.7083 22.5997 16.1781 23.145 16.7507C23.6388 17.3333 23.918 18.4901 23.5314 20.64C23.0897 22.811 22.2992 24.2032 21.28 25.001C20.2186 25.8074 18.5098 26.2917 15.9893 26.2917H13.2359L15.2843 15.7083H18.9244Z" fill="#4F5B93" stroke="white" stroke-width="2"/>
<path d="M36.0353 1H35.2108L35.0537 1.80938L29.2147 31.8784L28.9835 33.069H30.1964H36.7223H37.5468L37.7039 32.2597L40.8878 15.8644H45.2465C46.0331 15.8644 46.6317 15.9247 47.0658 16.0309C47.5096 16.1395 47.686 16.2726 47.7464 16.3406C47.8101 16.4122 47.9095 16.5826 47.9475 16.9686C47.9855 17.3543 47.9543 17.8832 47.8238 18.5799C47.8236 18.581 47.8234 18.5821 47.8232 18.5832L45.2329 31.8778L45.0008 33.069H46.2145H52.8028H53.6273L53.7845 32.2597L56.5003 18.2746C56.5004 18.274 56.5005 18.2735 56.5006 18.273C57.0933 15.275 56.6901 12.7861 54.9521 11.1665C53.2811 9.6095 50.4391 8.99343 46.7453 8.99343H42.183L43.5115 2.19169L43.7442 1H42.53H36.0353Z" fill="#4F5B93" stroke="white" stroke-width="2"/>
<path d="M81.5014 12.3015C79.5223 10.0349 76.4097 8.99342 72.4741 8.99342H59.8595H59.0353L58.8779 9.80242L53.039 39.809L52.8072 41H54.0206H60.5777H61.4L61.5588 40.1931L62.9612 33.069H67.7593C70.3121 33.069 72.4609 32.8153 74.1955 32.2371C75.934 31.6576 77.4912 30.7057 78.897 29.401C80.0697 28.3283 81.0083 27.121 81.7445 25.8159L81.7493 25.8073L81.7539 25.7987C82.4551 24.4966 82.9907 23.0579 83.292 21.4847L83.292 21.4845C84.0123 17.7193 83.5251 14.6145 81.5014 12.3015ZM81.5014 12.3015C81.5013 12.3014 81.5012 12.3013 81.5012 12.3012L80.7486 12.9597L81.5019 12.3021C81.5017 12.3019 81.5015 12.3017 81.5014 12.3015ZM69.9762 15.7083C72.3811 15.7083 73.6514 16.1781 74.1968 16.7506C74.6837 17.3257 74.9418 18.4724 74.5519 20.64C74.1103 22.811 73.3198 24.2032 72.3006 25.001C71.2391 25.8074 69.5304 26.2917 67.0099 26.2917H64.2565L66.3049 15.7083H69.9762Z" fill="#4F5B93" stroke="white" stroke-width="2"/>
</svg>
