<?xml version="1.0" encoding="utf-8"?>
<svg fill="#2b2c32" width="800px" height="800px" viewBox="-5.5 0 32 32" version="1.1"
     xmlns="http://www.w3.org/2000/svg">
    <path d="M10.16 25.92c-2.6 0-8.72-0.24-9.88-2.24-1.28-2.28 2.040-8.24 3.080-10.040 1.040-1.76 4.64-7.56 7.12-7.56 2.8 0 7.24 7.48 8.56 10.12 1.92 3.84 2.48 6.4 1.56 7.6-1.52 2.040-8.96 2.12-10.44 2.12zM10.48 7.72c-0.72 0-3.080 2.36-5.64 6.76-2.76 4.68-3.48 7.72-3.080 8.4 0.32 0.56 3.2 1.4 8.4 1.4 5.44 0 8.64-0.88 9.080-1.48 0.28-0.36 0.040-2.28-1.72-5.84-2.64-5.28-6.12-9.24-7.040-9.24zM10.52 19.2c-0.48 0-0.84-0.36-0.84-0.84v-6.36c0-0.48 0.36-0.84 0.84-0.84s0.84 0.36 0.84 0.84v6.32c0 0.48-0.4 0.88-0.84 0.88zM11.36 21.36c0 0.464-0.376 0.84-0.84 0.84s-0.84-0.376-0.84-0.84c0-0.464 0.376-0.84 0.84-0.84s0.84 0.376 0.84 0.84z"></path>
</svg>
